<?xml version="1.0" encoding="UTF-8"?>
<svg width="700pt" height="700pt" version="1.1" viewBox="0 0 700 700" xmlns="http://www.w3.org/2000/svg" xmlns:xlink="http://www.w3.org/1999/xlink">
 <defs>
  <symbol id="t" overflow="visible">
   <path d="m5.8438-0.34375c-0.29297 0.15625-0.60547 0.27344-0.9375 0.34375-0.32422 0.082031-0.66406 0.125-1.0156 0.125-1.0625 0-1.9062-0.29688-2.5312-0.89062-0.61719-0.59375-0.92188-1.3945-0.92188-2.4062 0-1.0195 0.30469-1.8281 0.92188-2.4219 0.625-0.59375 1.4688-0.89062 2.5312-0.89062 0.35156 0 0.69141 0.042969 1.0156 0.125 0.33203 0.074219 0.64453 0.1875 0.9375 0.34375v1.3281c-0.30469-0.20703-0.60156-0.35938-0.89062-0.45312-0.29297-0.10156-0.60547-0.15625-0.9375-0.15625-0.58594 0-1.0469 0.1875-1.3906 0.5625-0.33594 0.375-0.5 0.89844-0.5 1.5625 0 0.65625 0.16406 1.1719 0.5 1.5469 0.34375 0.375 0.80469 0.5625 1.3906 0.5625 0.33203 0 0.64453-0.046875 0.9375-0.14062 0.28906-0.10156 0.58594-0.25781 0.89062-0.46875z"/>
  </symbol>
  <symbol id="c" overflow="visible">
   <path d="m4.2812-3.4688c-0.13672-0.0625-0.27344-0.10938-0.40625-0.14062-0.125-0.03125-0.25781-0.046875-0.39062-0.046875-0.39844 0-0.69922 0.125-0.90625 0.375-0.21094 0.25-0.3125 0.60938-0.3125 1.0781v2.2031h-1.5312v-4.7812h1.5312v0.79688c0.1875-0.32031 0.40625-0.55078 0.65625-0.6875 0.25781-0.14453 0.56641-0.21875 0.92188-0.21875 0.050781 0 0.10938 0.007813 0.17188 0.015625 0.0625 0 0.14844 0.007812 0.26562 0.015625z"/>
  </symbol>
  <symbol id="b" overflow="visible">
   <path d="m5.5-2.4062v0.4375h-3.5625c0.03125 0.36719 0.15625 0.63672 0.375 0.8125 0.22656 0.17969 0.53906 0.26562 0.9375 0.26562 0.32031 0 0.64844-0.046875 0.98438-0.14062 0.34375-0.09375 0.69141-0.23828 1.0469-0.4375v1.1719c-0.36719 0.14844-0.73047 0.25-1.0938 0.3125-0.35547 0.070312-0.71484 0.10938-1.0781 0.10938-0.86719 0-1.5391-0.21875-2.0156-0.65625-0.48047-0.4375-0.71875-1.0547-0.71875-1.8594 0-0.76953 0.23438-1.3789 0.70312-1.8281 0.46875-0.44531 1.1172-0.67188 1.9531-0.67188 0.75 0 1.3477 0.23047 1.7969 0.6875 0.44531 0.44922 0.67188 1.0469 0.67188 1.7969zm-1.5625-0.5c0-0.28906-0.089844-0.52344-0.26562-0.70312-0.16797-0.17578-0.38672-0.26562-0.65625-0.26562-0.29297 0-0.53125 0.085938-0.71875 0.25-0.1875 0.16797-0.30469 0.40625-0.34375 0.71875z"/>
  </symbol>
  <symbol id="f" overflow="visible">
   <path d="m2.875-2.1562c-0.32422 0-0.5625 0.058594-0.71875 0.17188-0.15625 0.10547-0.23438 0.26172-0.23438 0.46875 0 0.19922 0.0625 0.35547 0.1875 0.46875 0.125 0.10547 0.30469 0.15625 0.54688 0.15625 0.28125 0 0.51953-0.10156 0.71875-0.3125 0.19531-0.20703 0.29688-0.46094 0.29688-0.76562v-0.1875zm2.3281-0.5625v2.7188h-1.5312v-0.70312c-0.21094 0.29297-0.44531 0.50781-0.70312 0.64062-0.25 0.125-0.55859 0.1875-0.92188 0.1875-0.5 0-0.90625-0.14062-1.2188-0.42188-0.30469-0.28906-0.45312-0.67188-0.45312-1.1406 0-0.55078 0.19141-0.95703 0.57812-1.2188 0.38281-0.26953 0.98828-0.40625 1.8125-0.40625h0.90625v-0.10938c0-0.25-0.10156-0.42578-0.29688-0.53125-0.1875-0.11328-0.48438-0.17188-0.89062-0.17188-0.32422 0-0.625 0.03125-0.90625 0.09375s-0.54297 0.16406-0.78125 0.29688v-1.1719c0.32031-0.070312 0.64453-0.12891 0.96875-0.17188 0.33203-0.039063 0.66406-0.0625 1-0.0625 0.86328 0 1.4844 0.17188 1.8594 0.51562 0.38281 0.33594 0.57812 0.88672 0.57812 1.6562z"/>
  </symbol>
  <symbol id="a" overflow="visible">
   <path d="m2.4062-6.1406v1.3594h1.5625v1.0938h-1.5625v2.0312c0 0.21875 0.039062 0.37109 0.125 0.45312 0.09375 0.074219 0.26953 0.10938 0.53125 0.10938h0.78125v1.0938h-1.3125c-0.60547 0-1.0312-0.125-1.2812-0.375s-0.375-0.67578-0.375-1.2812v-2.0312h-0.76562v-1.0938h0.76562v-1.3594z"/>
  </symbol>
  <symbol id="k" overflow="visible">
   <path d="m3.9844-4.0781v-2.5625h1.5312v6.6406h-1.5312v-0.6875c-0.21094 0.28125-0.44531 0.49219-0.70312 0.625-0.25 0.125-0.54297 0.1875-0.875 0.1875-0.58594 0-1.0703-0.23438-1.4531-0.70312-0.375-0.46875-0.5625-1.0703-0.5625-1.8125 0-0.72656 0.1875-1.3281 0.5625-1.7969 0.38281-0.46875 0.86719-0.70312 1.4531-0.70312 0.33203 0 0.625 0.070313 0.875 0.20312 0.25781 0.125 0.49219 0.32812 0.70312 0.60938zm-1 3.0938c0.32031 0 0.56641-0.11719 0.73438-0.35938 0.17578-0.23828 0.26562-0.58594 0.26562-1.0469 0-0.44531-0.089844-0.78906-0.26562-1.0312-0.16797-0.23828-0.41406-0.35938-0.73438-0.35938-0.33594 0-0.58984 0.12109-0.76562 0.35938-0.16797 0.24219-0.25 0.58594-0.25 1.0312 0 0.46094 0.082031 0.80859 0.25 1.0469 0.17578 0.24219 0.42969 0.35938 0.76562 0.35938z"/>
  </symbol>
  <symbol id="j" overflow="visible">
   <path d="m3.2812-0.98438c0.32031 0 0.56641-0.11719 0.73438-0.35938 0.17578-0.23828 0.26562-0.58594 0.26562-1.0469 0-0.44531-0.089844-0.78906-0.26562-1.0312-0.16797-0.23828-0.41406-0.35938-0.73438-0.35938-0.33594 0-0.58984 0.12109-0.76562 0.35938-0.16797 0.24219-0.25 0.58594-0.25 1.0312 0 0.46094 0.082031 0.80859 0.25 1.0469 0.17578 0.24219 0.42969 0.35938 0.76562 0.35938zm-1.0156-3.0938c0.20703-0.28125 0.4375-0.48438 0.6875-0.60938 0.25781-0.13281 0.55469-0.20312 0.89062-0.20312 0.58203 0 1.0625 0.23438 1.4375 0.70312 0.38281 0.46875 0.57812 1.0703 0.57812 1.7969 0 0.74219-0.19531 1.3438-0.57812 1.8125-0.375 0.46875-0.85547 0.70312-1.4375 0.70312-0.33594 0-0.63281-0.0625-0.89062-0.1875-0.25-0.13281-0.48047-0.34375-0.6875-0.625v0.6875h-1.5312v-6.6406h1.5312z"/>
  </symbol>
  <symbol id="d" overflow="visible">
   <path d="m0.10938-4.7812h1.5312l1.2812 3.25 1.0938-3.25h1.5156l-2 5.2344c-0.21094 0.53125-0.44922 0.89844-0.71875 1.1094-0.26172 0.21875-0.61719 0.32812-1.0625 0.32812h-0.875v-1h0.48438c0.25 0 0.42969-0.042969 0.54688-0.125 0.125-0.085937 0.21875-0.23438 0.28125-0.45312l0.046875-0.125z"/>
  </symbol>
  <symbol id="i" overflow="visible">
   <path d="m0.26562-6.375h1.5625l1.1094 4.6406 1.0938-4.6406h1.5781l1.0938 4.6406 1.0938-4.6406h1.5625l-1.5 6.375h-1.8906l-1.1562-4.8438-1.1406 4.8438h-1.8906z"/>
  </symbol>
  <symbol id="h" overflow="visible">
   <path d="m5.5312-2.9062v2.9062h-1.5312v-2.2188c0-0.41406-0.011719-0.70312-0.03125-0.85938-0.023438-0.15625-0.054688-0.26953-0.09375-0.34375-0.0625-0.10156-0.14844-0.17969-0.25-0.23438-0.09375-0.050781-0.21094-0.078125-0.34375-0.078125-0.3125 0-0.5625 0.125-0.75 0.375-0.17969 0.24219-0.26562 0.57812-0.26562 1.0156v2.3438h-1.5312v-6.6406h1.5312v2.5625c0.22656-0.28125 0.46875-0.48438 0.71875-0.60938 0.25781-0.13281 0.54688-0.20312 0.85938-0.20312 0.55078 0 0.96875 0.17188 1.25 0.51562 0.28906 0.33594 0.4375 0.82422 0.4375 1.4688z"/>
  </symbol>
  <symbol id="s" overflow="visible">
   <path d="m2.2656-0.6875v2.5h-1.5312v-6.5938h1.5312v0.70312c0.20703-0.28125 0.4375-0.48438 0.6875-0.60938 0.25781-0.13281 0.55469-0.20312 0.89062-0.20312 0.58203 0 1.0625 0.23438 1.4375 0.70312 0.38281 0.46875 0.57812 1.0703 0.57812 1.7969 0 0.74219-0.19531 1.3438-0.57812 1.8125-0.375 0.46875-0.85547 0.70312-1.4375 0.70312-0.33594 0-0.63281-0.0625-0.89062-0.1875-0.25-0.13281-0.48047-0.34375-0.6875-0.625zm1.0156-3.0938c-0.33594 0-0.58984 0.12109-0.76562 0.35938-0.16797 0.24219-0.25 0.58594-0.25 1.0312 0 0.46094 0.082031 0.80859 0.25 1.0469 0.17578 0.24219 0.42969 0.35938 0.76562 0.35938 0.32031 0 0.56641-0.11719 0.73438-0.35938 0.17578-0.23828 0.26562-0.58594 0.26562-1.0469 0-0.44531-0.089844-0.78906-0.26562-1.0312-0.16797-0.23828-0.41406-0.35938-0.73438-0.35938z"/>
  </symbol>
  <symbol id="g" overflow="visible">
   <path d="m0.6875-1.8594v-2.9219h1.5312v0.48438c0 0.26172-0.007812 0.58984-0.015625 0.98438v0.76562c0 0.38672 0.007813 0.66797 0.03125 0.84375 0.019531 0.16797 0.054687 0.28906 0.10938 0.35938 0.0625 0.10547 0.14062 0.18359 0.23438 0.23438 0.10156 0.054687 0.22266 0.078125 0.35938 0.078125 0.3125 0 0.55469-0.11719 0.73438-0.35938 0.1875-0.25 0.28125-0.59375 0.28125-1.0312v-2.3594h1.5312v4.7812h-1.5312v-0.6875c-0.23047 0.28125-0.47656 0.49219-0.73438 0.625-0.25 0.125-0.53125 0.1875-0.84375 0.1875-0.55469 0-0.97656-0.16406-1.2656-0.5-0.28125-0.34375-0.42188-0.83594-0.42188-1.4844z"/>
  </symbol>
  <symbol id="r" overflow="visible">
   <path d="m3.875-6.6406v1h-0.84375c-0.21875 0-0.37109 0.042969-0.45312 0.125-0.085937 0.074219-0.125 0.21094-0.125 0.40625v0.32812h1.2969v1.0938h-1.2969v3.6875h-1.5312v-3.6875h-0.75v-1.0938h0.75v-0.32812c0-0.51953 0.14453-0.90625 0.4375-1.1562 0.28906-0.25 0.73828-0.375 1.3438-0.375z"/>
  </symbol>
  <symbol id="e" overflow="visible">
   <path d="m3-3.7969c-0.33594 0-0.58984 0.12109-0.76562 0.35938-0.17969 0.24219-0.26562 0.58984-0.26562 1.0469 0 0.46094 0.085938 0.8125 0.26562 1.0625 0.17578 0.24219 0.42969 0.35938 0.76562 0.35938 0.33203 0 0.58594-0.11719 0.76562-0.35938 0.17578-0.25 0.26562-0.60156 0.26562-1.0625 0-0.45703-0.089844-0.80469-0.26562-1.0469-0.17969-0.23828-0.43359-0.35938-0.76562-0.35938zm0-1.0938c0.82031 0 1.4609 0.22656 1.9219 0.67188 0.46875 0.4375 0.70312 1.0469 0.70312 1.8281 0 0.79297-0.23438 1.4141-0.70312 1.8594-0.46094 0.4375-1.1016 0.65625-1.9219 0.65625-0.82422 0-1.4688-0.21875-1.9375-0.65625-0.46094-0.44531-0.6875-1.0664-0.6875-1.8594 0-0.78125 0.22656-1.3906 0.6875-1.8281 0.46875-0.44531 1.1133-0.67188 1.9375-0.67188z"/>
  </symbol>
  <symbol id="q" overflow="visible">
   <path d="m5.1562-3.9844c0.19531-0.28906 0.42578-0.51562 0.6875-0.67188 0.26953-0.15625 0.5625-0.23438 0.875-0.23438 0.55078 0 0.96875 0.17188 1.25 0.51562 0.28906 0.33594 0.4375 0.82422 0.4375 1.4688v2.9062h-1.5312v-2.4844-0.125c0.007812-0.039063 0.015625-0.097656 0.015625-0.17188 0-0.33203-0.054687-0.57031-0.15625-0.71875-0.10547-0.15625-0.26562-0.23438-0.48438-0.23438-0.29297 0-0.51562 0.12109-0.67188 0.35938-0.15625 0.23047-0.24219 0.57422-0.25 1.0312v2.3438h-1.5312v-2.4844c0-0.53125-0.046875-0.86719-0.14062-1.0156-0.085938-0.15625-0.24609-0.23438-0.48438-0.23438-0.29297 0-0.51562 0.12109-0.67188 0.35938-0.15625 0.24219-0.23438 0.58594-0.23438 1.0312v2.3438h-1.5469v-4.7812h1.5469v0.70312c0.1875-0.26953 0.39844-0.47266 0.64062-0.60938 0.23828-0.13281 0.50391-0.20312 0.79688-0.20312 0.33203 0 0.625 0.078125 0.875 0.23438 0.25781 0.15625 0.45312 0.38281 0.57812 0.67188z"/>
  </symbol>
  <symbol id="p" overflow="visible">
   <path d="m0.79688-6.375h1.8438l2.3125 4.375v-4.375h1.5625v6.375h-1.8438l-2.3125-4.375v4.375h-1.5625z"/>
  </symbol>
  <symbol id="o" overflow="visible">
   <path d="m5.5312-2.9062v2.9062h-1.5312v-2.2188c0-0.41406-0.011719-0.70312-0.03125-0.85938-0.023438-0.15625-0.054688-0.26953-0.09375-0.34375-0.0625-0.10156-0.14844-0.17969-0.25-0.23438-0.09375-0.050781-0.21094-0.078125-0.34375-0.078125-0.3125 0-0.5625 0.125-0.75 0.375-0.17969 0.24219-0.26562 0.57812-0.26562 1.0156v2.3438h-1.5312v-4.7812h1.5312v0.70312c0.22656-0.28125 0.46875-0.48438 0.71875-0.60938 0.25781-0.13281 0.54688-0.20312 0.85938-0.20312 0.55078 0 0.96875 0.17188 1.25 0.51562 0.28906 0.33594 0.4375 0.82422 0.4375 1.4688z"/>
  </symbol>
  <symbol id="n" overflow="visible">
   <path d="m0.79688-6.375h2.7344c0.8125 0 1.4297 0.18359 1.8594 0.54688 0.4375 0.36719 0.65625 0.875 0.65625 1.5312 0 0.67969-0.21875 1.1992-0.65625 1.5625-0.42969 0.35547-1.0469 0.53125-1.8594 0.53125h-1.0938v2.2031h-1.6406zm1.6406 1.2031v1.7656h0.92188c0.3125 0 0.55078-0.070312 0.71875-0.21875 0.17578-0.15625 0.26562-0.37891 0.26562-0.67188 0-0.28125-0.089844-0.49219-0.26562-0.64062-0.16797-0.15625-0.40625-0.23438-0.71875-0.23438z"/>
  </symbol>
  <symbol id="m" overflow="visible">
   <path d="m0.73438-4.7812h1.5312v4.7031c0 0.63281-0.15625 1.1172-0.46875 1.4531-0.30469 0.34375-0.74609 0.51562-1.3281 0.51562h-0.76562v-1h0.26562c0.28906 0 0.48828-0.070313 0.59375-0.20312 0.11328-0.13672 0.17188-0.39062 0.17188-0.76562zm0-1.8594h1.5312v1.25h-1.5312z"/>
  </symbol>
  <symbol id="l" overflow="visible">
   <path d="m4.5938-4.625v1.25c-0.21094-0.14453-0.41797-0.25-0.625-0.3125-0.21094-0.070312-0.42969-0.10938-0.65625-0.10938-0.42969 0-0.76172 0.125-1 0.375-0.23047 0.25-0.34375 0.59375-0.34375 1.0312 0 0.44922 0.11328 0.79688 0.34375 1.0469 0.23828 0.25 0.57031 0.375 1 0.375 0.23828 0 0.46094-0.035156 0.67188-0.10938 0.21875-0.070313 0.42188-0.17578 0.60938-0.3125v1.25c-0.24219 0.085938-0.48438 0.14453-0.73438 0.1875-0.24219 0.050781-0.48438 0.078125-0.73438 0.078125-0.86719 0-1.543-0.21875-2.0312-0.65625-0.48047-0.44531-0.71875-1.0664-0.71875-1.8594 0-0.78125 0.23828-1.3906 0.71875-1.8281 0.48828-0.44531 1.1641-0.67188 2.0312-0.67188 0.25 0 0.49219 0.023437 0.73438 0.0625 0.25 0.042969 0.49219 0.10938 0.73438 0.20312z"/>
  </symbol>
 </defs>
 <g>
  <path d="m350 79.605c23.359 0 44.574 9.5391 59.895 24.848 15.359 15.305 24.863 36.57 24.863 59.949 0 23.395-9.5234 44.609-24.828 59.93-15.34 15.34-36.57 24.898-59.93 24.898-23.395 0-44.625-9.5586-59.949-24.883-15.34-15.305-24.863-36.555-24.863-59.949 0-23.359 9.5234-44.625 24.863-59.914 15.324-15.34 36.555-24.883 59.949-24.883zm91.75 330.62c-5.3477-0.83984-8.9297-5.8711-8.0898-11.199 0.83984-5.3281 5.9062-8.9297 11.219-8.0742 39.645 6.4648 73.352 17.055 96.992 30.121 25.145 13.941 39.75 31.312 39.75 50.707 0 26.227-27.379 49.098-71.516 64.684-41.098 14.555-97.742 23.535-160.1 23.535-62.344 0-119.02-8.9805-160.12-23.535-44.137-15.586-71.48-38.457-71.48-64.684 0-19.324 14.57-36.746 39.75-50.688 23.605-13.07 57.309-23.625 96.957-30.105 5.3477-0.875 10.379 2.7422 11.219 8.0547 0.875 5.3281-2.7422 10.359-8.0547 11.219-37.445 6.1328-68.949 15.918-90.613 27.922-18.781 10.379-29.668 22-29.668 33.602 0 17.035 22.363 33.477 58.445 46.234 39.121 13.84 93.445 22.383 153.57 22.383 60.105 0 114.45-8.543 153.57-22.383 36.062-12.754 58.445-29.195 58.445-46.234 0-11.637-10.902-23.238-29.688-33.637-21.668-11.984-53.168-21.805-90.578-27.922zm-100.33 66.938-23.5-39.629c-14.328-23.711-32.41-53.711-50.566-85.406l-12.527-21.578c-39.035-66.676-86.719-148.45-59.109-223.09 11.742-31.816 33.109-59.039 60.438-78.066 26.543-18.52 58.953-29.406 93.828-29.406 34.859 0 67.254 10.887 93.828 29.406 27.328 19.027 48.695 46.25 60.438 78.066 27.711 74.871-20.375 156.96-59.512 223.74l-12.145 20.934c-18.293 31.977-36.465 62.117-50.812 85.914l-23.324 39.172c-2.6367 4.6836-8.6484 6.3086-13.312 3.6523-1.6094-0.91016-2.8477-2.2188-3.7227-3.7031zm-6.7617-49.711 15.324 25.512 15.043-25.02c14.344-23.781 32.48-53.887 50.512-85.371l12.301-21.16c37.059-63.215 82.609-140.92 58.043-207.23-10.309-27.957-29.109-51.91-53.223-68.703-23.465-16.301-52-25.895-82.68-25.895-30.699 0-59.285 9.6094-82.664 25.895-24.129 16.793-42.93 40.746-53.238 68.703-24.48 66.082 20.688 143.47 57.609 206.51l12.598 21.613c17.945 31.383 36.082 61.418 50.375 85.145zm61.434-309.18c-11.742-11.758-28.098-19.082-46.094-19.082-18.031 0-34.352 7.3203-46.129 19.098-11.777 11.758-19.098 28.098-19.098 46.109 0 18.016 7.3203 34.352 19.098 46.129 11.777 11.777 28.098 19.098 46.129 19.098 17.996 0 34.316-7.3203 46.094-19.098 11.742-11.758 19.082-28.113 19.082-46.129 0-17.996-7.3047-34.352-19.082-46.129z"/>
  <use x="118.398438" y="586.210938" xlink:href="#t"/>
  <use x="124.8125" y="586.210938" xlink:href="#c"/>
  <use x="129.121094" y="586.210938" xlink:href="#b"/>
  <use x="135.042969" y="586.210938" xlink:href="#f"/>
  <use x="140.941406" y="586.210938" xlink:href="#a"/>
  <use x="145.117188" y="586.210938" xlink:href="#b"/>
  <use x="151.042969" y="586.210938" xlink:href="#k"/>
  <use x="160.335938" y="586.210938" xlink:href="#j"/>
  <use x="166.589844" y="586.210938" xlink:href="#d"/>
  <use x="175.328125" y="586.210938" xlink:href="#i"/>
  <use x="184.960938" y="586.210938" xlink:href="#h"/>
  <use x="191.183594" y="586.210938" xlink:href="#d"/>
  <use x="196.878906" y="586.210938" xlink:href="#d"/>
  <use x="202.570312" y="586.210938" xlink:href="#s"/>
  <use x="208.824219" y="586.210938" xlink:href="#g"/>
  <use x="215.046875" y="586.210938" xlink:href="#a"/>
  <use x="219.222656" y="586.210938" xlink:href="#c"/>
  <use x="223.53125" y="586.210938" xlink:href="#f"/>
  <use x="118.398438" y="594.945312" xlink:href="#r"/>
  <use x="122.199219" y="594.945312" xlink:href="#c"/>
  <use x="126.507813" y="594.945312" xlink:href="#e"/>
  <use x="132.511719" y="594.945312" xlink:href="#q"/>
  <use x="144.65625" y="594.945312" xlink:href="#a"/>
  <use x="148.832031" y="594.945312" xlink:href="#h"/>
  <use x="155.050781" y="594.945312" xlink:href="#b"/>
  <use x="164.019531" y="594.945312" xlink:href="#p"/>
  <use x="171.328125" y="594.945312" xlink:href="#e"/>
  <use x="177.332031" y="594.945312" xlink:href="#g"/>
  <use x="183.550781" y="594.945312" xlink:href="#o"/>
  <use x="192.8125" y="594.945312" xlink:href="#n"/>
  <use x="199.214844" y="594.945312" xlink:href="#c"/>
  <use x="203.523438" y="594.945312" xlink:href="#e"/>
  <use x="209.523438" y="594.945312" xlink:href="#m"/>
  <use x="212.519531" y="594.945312" xlink:href="#b"/>
  <use x="218.445312" y="594.945312" xlink:href="#l"/>
  <use x="223.625" y="594.945312" xlink:href="#a"/>
 </g>
</svg>
